# xmcd CD database file generated by Grip 2.91
# 
# Track frame offsets:
#       150
#       10662
#       27052
#       40067
#       60565
#       73640
#       89917
#       106722
#       120230
#       137317
#       151330
# 
# Disc length: 2123 seconds
# 
# Revision: 3
# Processed by: cddbd v1.4b41PL1 Copyright (c) Steve Scherf et al.
# Submitted via: Grip 2.91
# 
DISCID=7b08490b
DTITLE=The Ozark Mountain Band - Ginae's Breakdown
DYEAR=1900
DGENRE=
TTITLE0=Ginae's Breakdown
TTITLE1=All My Love to You
TTITLE2=The Waves of Life
TTITLE3=Mama's Hands
TTITLE4=Shadowcreek Breakdown
TTITLE5=The Love of the Lord
TTITLE6=Faded Pictures
TTITLE7=Down in the Hills of 'Ol Missouri
TTITLE8=Cowboy Song
TTITLE9=Serve at the Table
TTITLE10=Homeward Bound
EXTD=
EXTT0=
EXTT1=
EXTT2=
EXTT3=
EXTT4=
EXTT5=
EXTT6=
EXTT7=
EXTT8=
EXTT9=
EXTT10=
PLAYORDER=
